<svg id="cloud-page_header-dots-a-5673bcc8d50613d4247affb217f73169" xmlns="http://www.w3.org/2000/svg" xmlns:xlink="http://www.w3.org/1999/xlink" width="1366" height="387.944" viewBox="0 0 1366 387.944">
  <defs>
    <clipPath id="clip-path">
      <path id="Caminho_12" data-name="Caminho 12" d="M0,0H1366V387.944H0Z" fill="none" opacity="0.75"/>
    </clipPath>
    <clipPath id="clip-path-2">
      <path id="Caminho_7" data-name="Caminho 7" d="M0,122.257H176.555V0H0Z" transform="translate(122.257) rotate(90)" fill="none"/>
    </clipPath>
    <clipPath id="clip-path-3">
      <path id="Caminho_8" data-name="Caminho 8" d="M0,0H353.111V244.514H0Z" transform="translate(0 353.111) rotate(-90)" fill="none"/>
    </clipPath>
    <clipPath id="clip-path-4">
      <path id="Caminho_9" data-name="Caminho 9" d="M0,0H176.555V122.257H0Z" transform="translate(0 176.555) rotate(-90)" fill="none"/>
    </clipPath>
    <clipPath id="clip-path-6">
      <path id="Caminho_11" data-name="Caminho 11" d="M1262,445.5h176.556V567.757H1262Z" transform="translate(-1262 -445.5)" fill="none"/>
    </clipPath>
  </defs>
  <g id="cloud-page_header-dots-a-5673bcc8d50613d4247affb217f73169-2" data-name="cloud-page_header-dots-a-5673bcc8d50613d4247affb217f73169" clip-path="url(#clip-path)">
    <circle id="Elipse_4" data-name="Elipse 4" cx="5.464" cy="5.464" r="5.464" transform="translate(411.849 216.169) rotate(180)" fill="#f5fcff" opacity="0.75"/>
    <circle id="Elipse_5" data-name="Elipse 5" cx="5.414" cy="5.414" r="5.414" transform="translate(387.11 177.696)" fill="#fcfaff" opacity="0.75"/>
    <circle id="Elipse_6" data-name="Elipse 6" cx="5.464" cy="5.464" r="5.464" transform="translate(373.601 191.58)" fill="#f5fcff" opacity="0.75"/>
    <circle id="Elipse_7" data-name="Elipse 7" cx="5.414" cy="5.414" r="5.414" transform="translate(411.473 229.13) rotate(180)" fill="#f5fcff" opacity="0.75"/>
    <circle id="Elipse_8" data-name="Elipse 8" cx="5.414" cy="5.414" r="5.414" transform="translate(373.574 164.16)" fill="#f5fcff" opacity="0.75"/>
    <circle id="Elipse_9" data-name="Elipse 9" cx="5.464" cy="5.464" r="5.464" transform="translate(400.921 191.581)" fill="#fcfaff" opacity="0.75"/>
    <circle id="Elipse_10" data-name="Elipse 10" cx="5.464" cy="5.464" r="5.464" transform="translate(343.549 202.509) rotate(180)" fill="#f5fcff" opacity="0.75"/>
    <circle id="Elipse_11" data-name="Elipse 11" cx="5.414" cy="5.414" r="5.414" transform="translate(357.332 215.595) rotate(180)" fill="#d6d5f8" opacity="0.75"/>
    <circle id="Elipse_12" data-name="Elipse 12" cx="5.414" cy="5.414" r="5.414" transform="translate(397.938 229.13) rotate(180)" fill="#fcfaff" opacity="0.75"/>
    <circle id="Elipse_13" data-name="Elipse 13" cx="5.414" cy="5.414" r="5.414" transform="translate(343.797 229.13) rotate(180)" fill="#f6edfa" opacity="0.75"/>
    <circle id="Elipse_14" data-name="Elipse 14" cx="5.414" cy="5.414" r="5.414" transform="translate(360.039 164.16)" fill="#f5fcff" opacity="0.75"/>
    <circle id="Elipse_15" data-name="Elipse 15" cx="5.464" cy="5.464" r="5.464" transform="translate(346.281 232.561)" fill="#dbf0ff" opacity="0.75"/>
    <circle id="Elipse_16" data-name="Elipse 16" cx="5.464" cy="5.464" r="5.464" transform="translate(332.621 177.921)" fill="#f5fcff" opacity="0.75"/>
    <circle id="Elipse_17" data-name="Elipse 17" cx="10.828" cy="10.828" r="10.828" transform="translate(258.073 109.117) rotate(90)" fill="#d6d5f8" opacity="0.75"/>
    <ellipse id="Elipse_18" data-name="Elipse 18" cx="10.828" cy="11.279" rx="10.828" ry="11.279" transform="translate(181.373 212.887) rotate(-90)" fill="#f5fcff" opacity="0.75"/>
    <circle id="Elipse_19" data-name="Elipse 19" cx="10.828" cy="10.828" r="10.828" transform="translate(230.1 109.117) rotate(90)" fill="#fcfaff" opacity="0.75"/>
    <circle id="Elipse_20" data-name="Elipse 20" cx="10.828" cy="10.828" r="10.828" transform="translate(154.302 185.817) rotate(-90)" fill="#3524ce" opacity="0.75"/>
    <circle id="Elipse_21" data-name="Elipse 21" cx="10.828" cy="10.828" r="10.828" transform="translate(285.144 109.117) rotate(90)" fill="#f5fcff" opacity="0.75"/>
    <circle id="Elipse_22" data-name="Elipse 22" cx="10.828" cy="10.828" r="10.828" transform="translate(208.444 212.887) rotate(-90)" fill="#f5fcff" opacity="0.75"/>
    <circle id="Elipse_23" data-name="Elipse 23" cx="10.828" cy="10.828" r="10.828" transform="translate(230.1 164.16) rotate(90)" fill="#fcfaff" opacity="0.75"/>
    <circle id="Elipse_24" data-name="Elipse 24" cx="10.828" cy="10.828" r="10.828" transform="translate(257.171 273.345) rotate(90)" fill="#ff4500" opacity="0.75"/>
    <ellipse id="Elipse_25" data-name="Elipse 25" cx="10.828" cy="11.279" rx="10.828" ry="11.279" transform="translate(181.373 76.632) rotate(-90)" fill="#f5fcff" opacity="0.75"/>
    <ellipse id="Elipse_26" data-name="Elipse 26" cx="11.279" cy="10.828" rx="11.279" ry="10.828" transform="translate(230.1 218.302) rotate(90)" fill="#fcfaff" opacity="0.75"/>
    <ellipse id="Elipse_27" data-name="Elipse 27" cx="10.828" cy="11.279" rx="10.828" ry="11.279" transform="translate(181.373 185.817) rotate(-90)" fill="#f5fcff" opacity="0.75"/>
    <circle id="Elipse_28" data-name="Elipse 28" cx="10.828" cy="10.828" r="10.828" transform="translate(203.029 246.275) rotate(90)" fill="#fcfaff" opacity="0.75"/>
    <path id="Caminho_13" data-name="Caminho 13" d="M10.828,0A10.828,10.828,0,1,1,0,10.828,10.828,10.828,0,0,1,10.828,0Z" transform="translate(312.214 246.275) rotate(90)" fill="#6460f1" opacity="0.75"/>
    <circle id="Elipse_30" data-name="Elipse 30" cx="10.828" cy="10.828" r="10.828" transform="translate(285.144 82.046) rotate(90)" fill="#f5fcff" opacity="0.75"/>
    <circle id="Elipse_31" data-name="Elipse 31" cx="10.828" cy="10.828" r="10.828" transform="translate(122.72 267.931) rotate(-90)" fill="#e19b81" opacity="0.75"/>
    <ellipse id="Elipse_32" data-name="Elipse 32" cx="11.279" cy="10.828" rx="11.279" ry="10.828" transform="translate(257.171 27.003) rotate(90)" fill="#f5fcff" opacity="0.75"/>
    <circle id="Elipse_33" data-name="Elipse 33" cx="5.464" cy="5.464" r="5.464" transform="translate(277.639 313.497) rotate(-90)" fill="#f5fcff" opacity="0.75"/>
    <circle id="Elipse_34" data-name="Elipse 34" cx="5.464" cy="5.464" r="5.464" transform="translate(343.207 288.909) rotate(90)" fill="#fcfaff" opacity="0.75"/>
    <circle id="Elipse_35" data-name="Elipse 35" cx="5.464" cy="5.464" r="5.464" transform="translate(304.959 327.157) rotate(-90)" fill="#f5fcff" opacity="0.75"/>
    <circle id="Elipse_36" data-name="Elipse 36" cx="5.464" cy="5.464" r="5.464" transform="translate(315.889 275.249) rotate(90)" fill="#dbf0ff" opacity="0.75"/>
    <circle id="Elipse_37" data-name="Elipse 37" cx="5.464" cy="5.464" r="5.464" transform="translate(263.979 327.157) rotate(-90)" fill="#fcfaff" opacity="0.75"/>
    <circle id="Elipse_38" data-name="Elipse 38" cx="5.464" cy="5.464" r="5.464" transform="translate(304.959 340.817) rotate(-90)" fill="#fcfaff" opacity="0.75"/>
    <circle id="Elipse_39" data-name="Elipse 39" cx="5.464" cy="5.464" r="5.464" transform="translate(370.527 274.908) rotate(90)" fill="#fcfaff" opacity="0.75"/>
    <circle id="Elipse_40" data-name="Elipse 40" cx="5.464" cy="5.464" r="5.464" transform="translate(291.299 202.168) rotate(-90)" fill="#f5fcff" opacity="0.75"/>
    <circle id="Elipse_41" data-name="Elipse 41" cx="5.464" cy="5.464" r="5.464" transform="translate(356.869 357.209) rotate(90)" fill="#f5fcff" opacity="0.75"/>
    <circle id="Elipse_42" data-name="Elipse 42" cx="5.464" cy="5.464" r="5.464" transform="translate(373.259 272.175) rotate(-90)" fill="#f5fcff" opacity="0.75"/>
    <circle id="Elipse_43" data-name="Elipse 43" cx="5.464" cy="5.464" r="5.464" transform="translate(343.209 329.889) rotate(90)" fill="#f5fcff" opacity="0.75"/>
    <circle id="Elipse_44" data-name="Elipse 44" cx="5.464" cy="5.464" r="5.464" transform="translate(304.959 243.148) rotate(-90)" fill="#fcfaff" opacity="0.75"/>
    <circle id="Elipse_45" data-name="Elipse 45" cx="5.464" cy="5.464" r="5.464" transform="translate(343.209 343.549) rotate(90)" fill="#f5fcff" opacity="0.75"/>
    <circle id="Elipse_46" data-name="Elipse 46" cx="5.464" cy="5.464" r="5.464" transform="translate(291.299 243.148) rotate(-90)" fill="#fcfaff" opacity="0.75"/>
    <circle id="Elipse_47" data-name="Elipse 47" cx="5.464" cy="5.464" r="5.464" transform="translate(356.869 343.549) rotate(90)" fill="#fcfaff" opacity="0.75"/>
    <circle id="Elipse_48" data-name="Elipse 48" cx="5.464" cy="5.464" r="5.464" transform="translate(263.979 340.817) rotate(-90)" fill="#f5fcff" opacity="0.75"/>
    <circle id="Elipse_49" data-name="Elipse 49" cx="5.464" cy="5.464" r="5.464" transform="translate(356.867 261.589) rotate(90)" fill="#f5fcff" opacity="0.75"/>
    <circle id="Elipse_50" data-name="Elipse 50" cx="5.464" cy="5.464" r="5.464" transform="translate(275.59 354.477) rotate(-90)" fill="#f5fcff" opacity="0.75"/>
    <circle id="Elipse_51" data-name="Elipse 51" cx="5.414" cy="5.414" r="5.414" transform="translate(342.894 248.079) rotate(90)" fill="#f5fcff" opacity="0.75"/>
    <circle id="Elipse_52" data-name="Elipse 52" cx="5.464" cy="5.464" r="5.464" transform="translate(275.59 368.137) rotate(-90)" fill="#fcfaff" opacity="0.75"/>
    <circle id="Elipse_53" data-name="Elipse 53" cx="5.414" cy="5.414" r="5.414" transform="translate(342.894 234.544) rotate(90)" fill="#fcfaff" opacity="0.75"/>
    <g id="Grupo_34" data-name="Grupo 34" transform="translate(263.638 41.321)" opacity="0.75" clip-path="url(#clip-path-2)">
      <circle id="Elipse_54" data-name="Elipse 54" cx="5.464" cy="5.464" r="5.464" transform="translate(79.569 68.3) rotate(90)" fill="#fcfaff"/>
      <circle id="Elipse_55" data-name="Elipse 55" cx="5.464" cy="5.464" r="5.464" transform="translate(41.321 106.548) rotate(-90)" fill="#dbf0ff"/>
      <circle id="Elipse_56" data-name="Elipse 56" cx="5.464" cy="5.464" r="5.464" transform="translate(52.251 54.64) rotate(90)" fill="#fcfaff"/>
      <circle id="Elipse_57" data-name="Elipse 57" cx="5.464" cy="5.464" r="5.464" transform="translate(0.341 106.548) rotate(-90)" fill="#fcfaff"/>
      <circle id="Elipse_58" data-name="Elipse 58" cx="5.464" cy="5.464" r="5.464" transform="translate(93.229 54.64) rotate(90)" fill="#fcfaff"/>
      <circle id="Elipse_59" data-name="Elipse 59" cx="5.464" cy="5.464" r="5.464" transform="translate(41.321 120.208) rotate(-90)" fill="#fcfaff"/>
      <circle id="Elipse_60" data-name="Elipse 60" cx="5.464" cy="5.464" r="5.464" transform="translate(38.589 40.98) rotate(90)" fill="#fffafd"/>
      <circle id="Elipse_61" data-name="Elipse 61" cx="5.464" cy="5.464" r="5.464" transform="translate(27.661 10.928) rotate(-90)" fill="#fcfaff"/>
      <circle id="Elipse_62" data-name="Elipse 62" cx="5.464" cy="5.464" r="5.464" transform="translate(93.231 136.6) rotate(90)" fill="#fcfaff"/>
      <circle id="Elipse_63" data-name="Elipse 63" cx="5.464" cy="5.464" r="5.464" transform="translate(41.321 38.248) rotate(-90)" fill="#f67300"/>
      <circle id="Elipse_64" data-name="Elipse 64" cx="5.464" cy="5.464" r="5.464" transform="translate(79.571 109.28) rotate(90)" fill="#fcfaff"/>
      <circle id="Elipse_65" data-name="Elipse 65" cx="5.464" cy="5.464" r="5.464" transform="translate(41.321 24.588) rotate(-90)" fill="#fcfaff"/>
      <circle id="Elipse_66" data-name="Elipse 66" cx="5.464" cy="5.464" r="5.464" transform="translate(79.571 122.94) rotate(90)" fill="#fcfaff"/>
      <circle id="Elipse_67" data-name="Elipse 67" cx="5.464" cy="5.464" r="5.464" transform="translate(27.661 24.588) rotate(-90)" fill="#dbf0ff"/>
      <circle id="Elipse_68" data-name="Elipse 68" cx="5.464" cy="5.464" r="5.464" transform="translate(93.231 122.94) rotate(90)" fill="#fcfaff"/>
      <circle id="Elipse_69" data-name="Elipse 69" cx="5.464" cy="5.464" r="5.464" transform="translate(0.341 120.208) rotate(-90)" fill="#f6edfa"/>
      <g id="Grupo_33" data-name="Grupo 33" transform="translate(11.952 13.66)">
        <circle id="Elipse_70" data-name="Elipse 70" cx="5.464" cy="5.464" r="5.464" transform="translate(81.277 27.32) rotate(90)" fill="#fcfaff"/>
        <circle id="Elipse_71" data-name="Elipse 71" cx="5.464" cy="5.464" r="5.464" transform="translate(0 120.208) rotate(-90)" fill="#fcfaff"/>
        <circle id="Elipse_72" data-name="Elipse 72" cx="5.464" cy="5.464" r="5.464" transform="translate(67.275 13.66) rotate(90)" fill="#fcfaff"/>
        <circle id="Elipse_73" data-name="Elipse 73" cx="5.464" cy="5.464" r="5.464" transform="translate(0 133.868) rotate(-90)" fill="#fcfaff"/>
        <circle id="Elipse_74" data-name="Elipse 74" cx="5.464" cy="5.464" r="5.464" transform="translate(67.277) rotate(90)" fill="#fcfaff"/>
      </g>
      <circle id="Elipse_75" data-name="Elipse 75" cx="5.464" cy="5.464" r="5.464" transform="translate(66.251 65.568) rotate(180)" fill="#f5fcff"/>
      <ellipse id="Elipse_76" data-name="Elipse 76" cx="5.865" cy="5.414" rx="5.865" ry="5.414" transform="translate(66.623 52.455) rotate(180)" fill="#fcfaff"/>
      <circle id="Elipse_77" data-name="Elipse 77" cx="5.414" cy="5.414" r="5.414" transform="translate(69.331 41.627)" fill="#f5fcff"/>
      <circle id="Elipse_78" data-name="Elipse 78" cx="5.414" cy="5.414" r="5.414" transform="translate(82.866 0.119)" fill="#fcfaff"/>
      <circle id="Elipse_79" data-name="Elipse 79" cx="5.464" cy="5.464" r="5.464" transform="translate(93.571 94.937) rotate(180)" fill="#f5fcff"/>
    </g>
    <circle id="Elipse_80" data-name="Elipse 80" cx="5.464" cy="5.464" r="5.464" transform="translate(386.919 318.278)" fill="#f5fcff" opacity="0.75"/>
    <circle id="Elipse_81" data-name="Elipse 81" cx="5.464" cy="5.464" r="5.464" transform="translate(373.259 345.598)" fill="#f5fcff" opacity="0.75"/>
    <circle id="Elipse_82" data-name="Elipse 82" cx="5.464" cy="5.464" r="5.464" transform="translate(425.167 356.527) rotate(180)" fill="#fcfaff" opacity="0.75"/>
    <circle id="Elipse_83" data-name="Elipse 83" cx="5.464" cy="5.464" r="5.464" transform="translate(373.259 304.618)" fill="#fcfaff" opacity="0.75"/>
    <circle id="Elipse_84" data-name="Elipse 84" cx="5.464" cy="5.464" r="5.464" transform="translate(425.167 397.506) rotate(180)" fill="#f6edfa" opacity="0.75"/>
    <circle id="Elipse_85" data-name="Elipse 85" cx="5.464" cy="5.464" r="5.464" transform="translate(359.599 345.598)" fill="#dbf0ff" opacity="0.75"/>
    <circle id="Elipse_86" data-name="Elipse 86" cx="5.464" cy="5.464" r="5.464" transform="translate(438.827 342.866) rotate(180)" fill="#fcfaff" opacity="0.75"/>
    <g id="Grupo_35" data-name="Grupo 35" transform="translate(332.279 331.938)" opacity="0.75">
      <circle id="Elipse_87" data-name="Elipse 87" cx="5.464" cy="5.464" r="5.464" transform="translate(136.6)" fill="#f5fcff"/>
      <circle id="Elipse_88" data-name="Elipse 88" cx="5.464" cy="5.464" r="5.464" transform="translate(10.928 65.569) rotate(180)" fill="#f5fcff"/>
      <circle id="Elipse_89" data-name="Elipse 89" cx="5.464" cy="5.464" r="5.464" transform="translate(109.28 13.66)" fill="#f5fcff"/>
      <circle id="Elipse_90" data-name="Elipse 90" cx="5.464" cy="5.464" r="5.464" transform="translate(38.248 51.909) rotate(180)" fill="#f5fcff"/>
      <circle id="Elipse_91" data-name="Elipse 91" cx="5.464" cy="5.464" r="5.464" transform="translate(122.94 13.66)" fill="#f5fcff"/>
    </g>
    <circle id="Elipse_92" data-name="Elipse 92" cx="5.464" cy="5.464" r="5.464" transform="translate(356.867 383.847) rotate(180)" fill="#fcfaff" opacity="0.75"/>
    <circle id="Elipse_93" data-name="Elipse 93" cx="5.464" cy="5.464" r="5.464" transform="translate(455.219 331.938)" fill="#fcfaff" opacity="0.75"/>
    <circle id="Elipse_94" data-name="Elipse 94" cx="5.464" cy="5.464" r="5.464" transform="translate(359.599 304.618)" fill="#f5fcff" opacity="0.75"/>
    <circle id="Elipse_95" data-name="Elipse 95" cx="5.464" cy="5.464" r="5.464" transform="translate(438.827 397.506) rotate(180)" fill="#fcfaff" opacity="0.75"/>
    <circle id="Elipse_96" data-name="Elipse 96" cx="5.464" cy="5.464" r="5.464" transform="translate(345.939 316.229)" fill="#f5fcff" opacity="0.75"/>
    <circle id="Elipse_97" data-name="Elipse 97" cx="5.464" cy="5.464" r="5.464" transform="translate(332.279 316.229)" fill="#f5fcff" opacity="0.75"/>
    <circle id="Elipse_98" data-name="Elipse 98" cx="5.464" cy="5.464" r="5.464" transform="translate(466.147 383.506) rotate(180)" fill="#fcfaff" opacity="0.75"/>
    <circle id="Elipse_99" data-name="Elipse 99" cx="5.464" cy="5.464" r="5.464" transform="translate(929.904 205.242)" fill="#fffafd" opacity="0.75"/>
    <circle id="Elipse_100" data-name="Elipse 100" cx="5.464" cy="5.464" r="5.464" transform="translate(954.492 188.508) rotate(180)" fill="#f5fcff" opacity="0.75"/>
    <circle id="Elipse_101" data-name="Elipse 101" cx="5.464" cy="5.464" r="5.464" transform="translate(916.245 204.9)" fill="#fffafd" opacity="0.75"/>
    <circle id="Elipse_102" data-name="Elipse 102" cx="5.464" cy="5.464" r="5.464" transform="translate(968.152 202.508) rotate(180)" fill="#fffafd" opacity="0.75"/>
    <circle id="Elipse_103" data-name="Elipse 103" cx="5.464" cy="5.464" r="5.464" transform="translate(929.904 218.56)" fill="#fffafd" opacity="0.75"/>
    <circle id="Elipse_104" data-name="Elipse 104" cx="5.464" cy="5.464" r="5.464" transform="translate(968.152 174.848) rotate(180)" fill="#fffafd" opacity="0.75"/>
    <circle id="Elipse_105" data-name="Elipse 105" cx="5.464" cy="5.464" r="5.464" transform="translate(916.245 191.581)" fill="#f5fcff" opacity="0.75"/>
    <circle id="Elipse_106" data-name="Elipse 106" cx="5.464" cy="5.464" r="5.464" transform="translate(940.832 202.509) rotate(180)" fill="#f5fcff" opacity="0.75"/>
    <circle id="Elipse_107" data-name="Elipse 107" cx="5.464" cy="5.464" r="5.464" transform="translate(998.204 191.581)" fill="#fffafd" opacity="0.75"/>
    <circle id="Elipse_108" data-name="Elipse 108" cx="5.464" cy="5.464" r="5.464" transform="translate(984.544 204.9)" fill="#fffafd" opacity="0.75"/>
    <circle id="Elipse_109" data-name="Elipse 109" cx="5.464" cy="5.464" r="5.464" transform="translate(913.512 202.509) rotate(180)" fill="#fffafd" opacity="0.75"/>
    <circle id="Elipse_110" data-name="Elipse 110" cx="5.464" cy="5.464" r="5.464" transform="translate(943.564 218.56)" fill="#f6edfa" opacity="0.75"/>
    <circle id="Elipse_111" data-name="Elipse 111" cx="5.464" cy="5.464" r="5.464" transform="translate(998.204 218.56)" fill="#f5fcff" opacity="0.75"/>
    <circle id="Elipse_112" data-name="Elipse 112" cx="5.464" cy="5.464" r="5.464" transform="translate(899.852 161.529) rotate(180)" fill="#f5fcff" opacity="0.75"/>
    <circle id="Elipse_113" data-name="Elipse 113" cx="5.464" cy="5.464" r="5.464" transform="translate(981.812 174.848) rotate(180)" fill="#fffafd" opacity="0.75"/>
    <circle id="Elipse_114" data-name="Elipse 114" cx="5.464" cy="5.464" r="5.464" transform="translate(888.924 234.269)" fill="#fffafd" opacity="0.75"/>
    <circle id="Elipse_115" data-name="Elipse 115" cx="5.464" cy="5.464" r="5.464" transform="translate(995.472 243.489) rotate(180)" fill="#fffafd" opacity="0.75"/>
    <circle id="Elipse_116" data-name="Elipse 116" cx="5.464" cy="5.464" r="5.464" transform="translate(1009.133 188.85) rotate(180)" fill="#fffafd" opacity="0.75"/>
    <g id="Grupo_37" data-name="Grupo 37" transform="translate(1033.546 25.953)" opacity="0.75" clip-path="url(#clip-path-3)">
      <ellipse id="Elipse_117" data-name="Elipse 117" cx="10.828" cy="11.279" rx="10.828" ry="11.279" transform="translate(104.13 167.77) rotate(90)" fill="#f6edfa"/>
      <circle id="Elipse_118" data-name="Elipse 118" cx="10.828" cy="10.828" r="10.828" transform="translate(137.517 216.497) rotate(-90)" fill="#fcfaff"/>
      <circle id="Elipse_119" data-name="Elipse 119" cx="10.828" cy="10.828" r="10.828" transform="translate(104.13 139.797) rotate(90)" fill="#fcfaff"/>
      <circle id="Elipse_120" data-name="Elipse 120" cx="10.828" cy="10.828" r="10.828" transform="translate(109.544 243.567) rotate(-90)" fill="#f5fcff"/>
      <circle id="Elipse_121" data-name="Elipse 121" cx="10.828" cy="10.828" r="10.828" transform="translate(77.06 167.77) rotate(90)" fill="#f5fcff"/>
      <circle id="Elipse_122" data-name="Elipse 122" cx="10.828" cy="10.828" r="10.828" transform="translate(164.588 243.567) rotate(-90)" fill="#ff4500"/>
      <g id="Grupo_36" data-name="Grupo 36" transform="translate(109.543 139.797)">
        <circle id="Elipse_123" data-name="Elipse 123" cx="10.828" cy="10.828" r="10.828" transform="translate(21.656 0) rotate(90)" fill="#fcfaff"/>
        <circle id="Elipse_124" data-name="Elipse 124" cx="10.828" cy="10.828" r="10.828" transform="translate(0 49.629) rotate(-90)" fill="#fcfaff"/>
        <circle id="Elipse_125" data-name="Elipse 125" cx="10.828" cy="10.828" r="10.828" transform="translate(21.656 164.228) rotate(90)" fill="#fcfaff"/>
      </g>
      <ellipse id="Elipse_126" data-name="Elipse 126" cx="11.279" cy="10.828" rx="11.279" ry="10.828" transform="translate(136.615 80.242) rotate(-90)" fill="#f5fcff"/>
      <circle id="Elipse_127" data-name="Elipse 127" cx="10.828" cy="10.828" r="10.828" transform="translate(104.13 276.955) rotate(90)" fill="#fcfaff"/>
      <circle id="Elipse_128" data-name="Elipse 128" cx="10.828" cy="10.828" r="10.828" transform="translate(109.544 134.383) rotate(-90)" fill="#f5fcff"/>
      <circle id="Elipse_129" data-name="Elipse 129" cx="10.828" cy="10.828" r="10.828" transform="translate(77.06 194.84) rotate(90)" fill="#fcfaff"/>
      <ellipse id="Elipse_130" data-name="Elipse 130" cx="10.828" cy="11.279" rx="10.828" ry="11.279" transform="translate(81.571 107.312) rotate(-90)" fill="#fcfaff"/>
      <circle id="Elipse_131" data-name="Elipse 131" cx="10.828" cy="10.828" r="10.828" transform="translate(77.06 304.025) rotate(90)" fill="#3524ce"/>
      <ellipse id="Elipse_132" data-name="Elipse 132" cx="11.279" cy="10.828" rx="11.279" ry="10.828" transform="translate(164.588 271.54) rotate(-90)" fill="#f5fcff"/>
      <circle id="Elipse_133" data-name="Elipse 133" cx="10.828" cy="10.828" r="10.828" transform="translate(45.477 85.656) rotate(90)" fill="#fcfaff"/>
      <circle id="Elipse_134" data-name="Elipse 134" cx="10.828" cy="10.828" r="10.828" transform="translate(27.43 298.611) rotate(-90)" fill="#fcfaff"/>
      <ellipse id="Elipse_135" data-name="Elipse 135" cx="11.279" cy="10.828" rx="11.279" ry="10.828" transform="translate(45.477 57.683) rotate(90)" fill="#fcfaff"/>
      <circle id="Elipse_136" data-name="Elipse 136" cx="10.828" cy="10.828" r="10.828" transform="translate(136.615 325.682) rotate(-90)" fill="#f5fcff"/>
    </g>
    <g id="Grupo_39" data-name="Grupo 39" transform="translate(955.858 41.321)" opacity="0.75" clip-path="url(#clip-path-4)">
      <circle id="Elipse_137" data-name="Elipse 137" cx="5.414" cy="5.414" r="5.414" transform="translate(25 84.038) rotate(90)" fill="#f5fcff"/>
      <circle id="Elipse_138" data-name="Elipse 138" cx="5.414" cy="5.414" r="5.414" transform="translate(68.313 108.401) rotate(-90)" fill="#f5fcff"/>
      <ellipse id="Elipse_139" data-name="Elipse 139" cx="5.865" cy="5.414" rx="5.865" ry="5.414" transform="translate(52.07 69.6) rotate(90)" fill="#f6edfa"/>
      <circle id="Elipse_140" data-name="Elipse 140" cx="5.414" cy="5.414" r="5.414" transform="translate(41.242 121.937) rotate(-90)" fill="#f5fcff"/>
      <ellipse id="Elipse_141" data-name="Elipse 141" cx="5.865" cy="5.414" rx="5.865" ry="5.414" transform="translate(11.464 69.6) rotate(90)" fill="#fffafd"/>
      <circle id="Elipse_142" data-name="Elipse 142" cx="5.414" cy="5.414" r="5.414" transform="translate(82.75 121.937) rotate(-90)" fill="#dbf0ff"/>
      <circle id="Elipse_143" data-name="Elipse 143" cx="5.414" cy="5.414" r="5.414" transform="translate(52.07 56.065) rotate(90)" fill="#f5fcff"/>
      <ellipse id="Elipse_144" data-name="Elipse 144" cx="5.865" cy="5.414" rx="5.865" ry="5.414" transform="translate(38.535 165.249) rotate(90)" fill="#ff4500"/>
      <circle id="Elipse_145" data-name="Elipse 145" cx="5.414" cy="5.414" r="5.414" transform="translate(82.75 39.822) rotate(-90)" fill="#f5fcff"/>
      <circle id="Elipse_146" data-name="Elipse 146" cx="5.414" cy="5.414" r="5.414" transform="translate(52.07 138.179) rotate(90)" fill="#f5fcff"/>
      <circle id="Elipse_147" data-name="Elipse 147" cx="5.414" cy="5.414" r="5.414" transform="translate(68.313 66.893) rotate(-90)" fill="#2de3da"/>
      <circle id="Elipse_148" data-name="Elipse 148" cx="5.414" cy="5.414" r="5.414" transform="translate(52.07 151.714) rotate(90)" fill="#dbf0ff"/>
      <circle id="Elipse_149" data-name="Elipse 149" cx="5.414" cy="5.414" r="5.414" transform="translate(68.313 53.358) rotate(-90)" fill="#f6edfa"/>
      <g id="Grupo_38" data-name="Grupo 38" transform="translate(0.636 28.994)">
        <circle id="Elipse_150" data-name="Elipse 150" cx="5.414" cy="5.414" r="5.414" transform="translate(37.899 122.72) rotate(90)" fill="#f5fcff"/>
        <circle id="Elipse_151" data-name="Elipse 151" cx="5.414" cy="5.414" r="5.414" transform="translate(82.114 24.364) rotate(-90)" fill="#f5fcff"/>
        <circle id="Elipse_152" data-name="Elipse 152" cx="5.414" cy="5.414" r="5.414" transform="translate(10.828 27.071) rotate(90)" fill="#f5fcff"/>
        <circle id="Elipse_153" data-name="Elipse 153" cx="5.414" cy="5.414" r="5.414" transform="translate(82.114 106.478) rotate(-90)" fill="#f5fcff"/>
        <circle id="Elipse_154" data-name="Elipse 154" cx="5.414" cy="5.414" r="5.414" transform="translate(22.559 13.535) rotate(90)" fill="#f5fcff"/>
        <circle id="Elipse_155" data-name="Elipse 155" cx="5.464" cy="5.464" r="5.464" transform="translate(67.664 120.241) rotate(-90)" fill="#f5fcff"/>
        <circle id="Elipse_156" data-name="Elipse 156" cx="5.414" cy="5.414" r="5.414" transform="translate(22.559 0) rotate(90)" fill="#f5fcff"/>
        <circle id="Elipse_157" data-name="Elipse 157" cx="5.464" cy="5.464" r="5.464" transform="translate(67.664 133.901) rotate(-90)" fill="#f5fcff"/>
      </g>
    </g>
    <g id="Grupo_41" data-name="Grupo 41" transform="translate(955.858 220.609)" opacity="0.75" clip-path="url(#clip-path-4)">
      <circle id="Elipse_158" data-name="Elipse 158" cx="5.464" cy="5.464" r="5.464" transform="translate(68.641 108.256) rotate(-90)" fill="#f6edfa"/>
      <circle id="Elipse_159" data-name="Elipse 159" cx="5.464" cy="5.464" r="5.464" transform="translate(52.249 70.007) rotate(90)" fill="#fffafd"/>
      <circle id="Elipse_160" data-name="Elipse 160" cx="5.464" cy="5.464" r="5.464" transform="translate(41.321 121.916) rotate(-90)" fill="#fffafd"/>
      <circle id="Elipse_161" data-name="Elipse 161" cx="5.464" cy="5.464" r="5.464" transform="translate(82.301 121.916) rotate(-90)" fill="#fcfaff"/>
      <circle id="Elipse_162" data-name="Elipse 162" cx="5.464" cy="5.464" r="5.464" transform="translate(52.249 56.347) rotate(90)" fill="#f6edfa"/>
      <circle id="Elipse_163" data-name="Elipse 163" cx="5.414" cy="5.414" r="5.414" transform="translate(96.286 122.217) rotate(-90)" fill="#f5fcff"/>
      <circle id="Elipse_164" data-name="Elipse 164" cx="5.464" cy="5.464" r="5.464" transform="translate(38.589 165.627) rotate(90)" fill="#fffafd"/>
      <circle id="Elipse_165" data-name="Elipse 165" cx="5.464" cy="5.464" r="5.464" transform="translate(82.301 39.955) rotate(-90)" fill="#f6edfa"/>
      <circle id="Elipse_166" data-name="Elipse 166" cx="5.414" cy="5.414" r="5.414" transform="translate(120.649 124.924) rotate(90)" fill="#fffafd"/>
      <circle id="Elipse_167" data-name="Elipse 167" cx="5.464" cy="5.464" r="5.464" transform="translate(68.641 67.275) rotate(-90)" fill="#fffafd"/>
      <circle id="Elipse_168" data-name="Elipse 168" cx="5.464" cy="5.464" r="5.464" transform="translate(52.249 151.967) rotate(90)" fill="#fcfaff"/>
      <circle id="Elipse_169" data-name="Elipse 169" cx="5.464" cy="5.464" r="5.464" transform="translate(68.641 53.615) rotate(-90)" fill="#fffafd"/>
      <circle id="Elipse_170" data-name="Elipse 170" cx="5.464" cy="5.464" r="5.464" transform="translate(38.589 151.967) rotate(90)" fill="#fffafd"/>
      <circle id="Elipse_171" data-name="Elipse 171" cx="5.464" cy="5.464" r="5.464" transform="translate(82.301 53.615) rotate(-90)" fill="#dbf0ff"/>
      <g id="Grupo_40" data-name="Grupo 40" transform="translate(0.341 42.688)">
        <circle id="Elipse_172" data-name="Elipse 172" cx="5.464" cy="5.464" r="5.464" transform="translate(10.928 13.66) rotate(90)" fill="#fffafd"/>
        <circle id="Elipse_173" data-name="Elipse 173" cx="5.464" cy="5.464" r="5.464" transform="translate(81.96 92.888) rotate(-90)" fill="#fffafd"/>
        <circle id="Elipse_174" data-name="Elipse 174" cx="5.464" cy="5.464" r="5.464" transform="translate(22.539 0) rotate(90)" fill="#fffafd"/>
      </g>
      <circle id="Elipse_175" data-name="Elipse 175" cx="5.464" cy="5.464" r="5.464" transform="translate(68.3 149.235) rotate(-90)" fill="#f6edfa"/>
      <circle id="Elipse_176" data-name="Elipse 176" cx="5.464" cy="5.464" r="5.464" transform="translate(22.88 29.027) rotate(90)" fill="#f5fcff"/>
      <circle id="Elipse_177" data-name="Elipse 177" cx="5.464" cy="5.464" r="5.464" transform="translate(68.3 162.895) rotate(-90)" fill="#fcfaff"/>
    </g>
    <g id="Grupo_43" data-name="Grupo 43" transform="translate(861.946 304.276)" opacity="0.75" clip-path="url(#clip-path-6)">
      <circle id="Elipse_178" data-name="Elipse 178" cx="5.414" cy="5.414" r="5.414" transform="translate(92.744 25.014) rotate(180)" fill="#fcfaff"/>
      <circle id="Elipse_179" data-name="Elipse 179" cx="5.414" cy="5.414" r="5.414" transform="translate(68.381 68.327)" fill="#f5fcff"/>
      <circle id="Elipse_180" data-name="Elipse 180" cx="5.414" cy="5.414" r="5.414" transform="translate(106.279 52.085) rotate(180)" fill="#ff4500"/>
      <circle id="Elipse_181" data-name="Elipse 181" cx="5.414" cy="5.414" r="5.414" transform="translate(54.845 41.257)" fill="#fcfaff"/>
      <circle id="Elipse_182" data-name="Elipse 182" cx="5.414" cy="5.414" r="5.414" transform="translate(106.279 11.479) rotate(180)" fill="#f5fcff"/>
      <ellipse id="Elipse_183" data-name="Elipse 183" cx="5.414" cy="5.865" rx="5.414" ry="5.865" transform="translate(54.845 81.863)" fill="#f5fcff"/>
      <circle id="Elipse_184" data-name="Elipse 184" cx="5.414" cy="5.414" r="5.414" transform="translate(119.815 52.085) rotate(180)" fill="#f5fcff"/>
      <g id="Grupo_42" data-name="Grupo 42" transform="translate(-0.198 27.722)">
        <circle id="Elipse_185" data-name="Elipse 185" cx="5.414" cy="5.414" r="5.414" transform="translate(41.508 0)" fill="#fcfaff"/>
        <circle id="Elipse_186" data-name="Elipse 186" cx="5.414" cy="5.414" r="5.414" transform="translate(10.828 10.828) rotate(180)" fill="#fcfaff"/>
        <ellipse id="Elipse_187" data-name="Elipse 187" cx="5.414" cy="5.865" rx="5.414" ry="5.865" transform="translate(137.158 54.141)" fill="#fcfaff"/>
        <ellipse id="Elipse_188" data-name="Elipse 188" cx="5.865" cy="5.414" rx="5.865" ry="5.414" transform="translate(38.801 24.364) rotate(180)" fill="#fcfaff"/>
        <circle id="Elipse_189" data-name="Elipse 189" cx="5.414" cy="5.414" r="5.414" transform="translate(109.185 40.606)" fill="#fcfaff"/>
        <circle id="Elipse_190" data-name="Elipse 190" cx="5.414" cy="5.414" r="5.414" transform="translate(24.364 24.364) rotate(180)" fill="#fcfaff"/>
        <ellipse id="Elipse_191" data-name="Elipse 191" cx="5.865" cy="5.414" rx="5.865" ry="5.414" transform="translate(122.72 40.606)" fill="#fcfaff"/>
        <ellipse id="Elipse_192" data-name="Elipse 192" cx="5.414" cy="5.865" rx="5.414" ry="5.865" transform="translate(41.508 54.141)" fill="#fcfaff"/>
      </g>
      <ellipse id="Elipse_193" data-name="Elipse 193" cx="5.865" cy="5.414" rx="5.865" ry="5.414" transform="translate(134.252 23.21) rotate(180)" fill="#dbf0ff"/>
      <circle id="Elipse_194" data-name="Elipse 194" cx="5.464" cy="5.464" r="5.464" transform="translate(27.32 68.3)" fill="#f5fcff"/>
      <circle id="Elipse_195" data-name="Elipse 195" cx="5.414" cy="5.414" r="5.414" transform="translate(147.788 23.21) rotate(180)" fill="#f5fcff"/>
    </g>
    <path id="Caminho_21" data-name="Caminho 21" d="M308.16,49.58a3.858,3.858,0,0,0-.5.38A4,4,0,0,1,301,47V32.38a4,4,0,0,1,6.66-3,3.86,3.86,0,0,0,.5.38l9.91,6.66a3.93,3.93,0,0,1,1.77,3.23v.22a3.92,3.92,0,0,1-1.77,3Z" transform="translate(839.984 361.024) rotate(-45)" fill="#ff4300" opacity="0.75"/>
    <path id="Caminho_22" data-name="Caminho 22" d="M308.16,49.58a3.858,3.858,0,0,0-.5.38A4,4,0,0,1,301,47V32.38a4,4,0,0,1,6.66-3,3.86,3.86,0,0,0,.5.38l9.91,6.66a3.93,3.93,0,0,1,1.77,3.23v.22a3.92,3.92,0,0,1-1.77,3Z" transform="translate(540.152 48.72) rotate(150)" fill="#ff4300" opacity="0.75"/>
  </g>
</svg>
