<svg xmlns="http://www.w3.org/2000/svg" xmlns:xlink="http://www.w3.org/1999/xlink" width="357.087" height="370.505" viewBox="0 0 357.087 370.505">
  <defs>
    <clipPath id="clip-path">
      <path id="Caminho_24" data-name="Caminho 24" d="M0,122.257H176.555V0H0Z" transform="translate(122.257) rotate(90)" fill="none"/>
    </clipPath>
  </defs>
  <g id="Grupo_47" data-name="Grupo 47" transform="translate(-7299.72 478.114)">
    <circle id="Elipse_196" data-name="Elipse 196" cx="5.464" cy="5.464" r="5.464" transform="translate(7588.849 -288.948) rotate(180)" fill="#f5fcff" opacity="0.75"/>
    <circle id="Elipse_197" data-name="Elipse 197" cx="5.414" cy="5.414" r="5.414" transform="translate(7564.109 -327.421)" fill="#fcfaff" opacity="0.75"/>
    <circle id="Elipse_198" data-name="Elipse 198" cx="5.464" cy="5.464" r="5.464" transform="translate(7550.601 -313.537)" fill="#f5fcff" opacity="0.75"/>
    <circle id="Elipse_199" data-name="Elipse 199" cx="5.414" cy="5.414" r="5.414" transform="translate(7588.473 -275.987) rotate(180)" fill="#f5fcff" opacity="0.75"/>
    <circle id="Elipse_200" data-name="Elipse 200" cx="5.414" cy="5.414" r="5.414" transform="translate(7550.574 -340.957)" fill="#f5fcff" opacity="0.75"/>
    <circle id="Elipse_201" data-name="Elipse 201" cx="5.464" cy="5.464" r="5.464" transform="translate(7577.921 -313.536)" fill="#fcfaff" opacity="0.75"/>
    <circle id="Elipse_202" data-name="Elipse 202" cx="5.464" cy="5.464" r="5.464" transform="translate(7520.549 -302.608) rotate(180)" fill="#f5fcff" opacity="0.75"/>
    <circle id="Elipse_203" data-name="Elipse 203" cx="5.414" cy="5.414" r="5.414" transform="translate(7534.332 -289.522) rotate(180)" fill="#d6d5f8" opacity="0.75"/>
    <circle id="Elipse_204" data-name="Elipse 204" cx="5.414" cy="5.414" r="5.414" transform="translate(7574.938 -275.987) rotate(180)" fill="#fcfaff" opacity="0.75"/>
    <circle id="Elipse_205" data-name="Elipse 205" cx="5.414" cy="5.414" r="5.414" transform="translate(7520.796 -275.987) rotate(180)" fill="#f6edfa" opacity="0.75"/>
    <circle id="Elipse_206" data-name="Elipse 206" cx="5.414" cy="5.414" r="5.414" transform="translate(7537.039 -340.957)" fill="#f5fcff" opacity="0.75"/>
    <circle id="Elipse_207" data-name="Elipse 207" cx="5.464" cy="5.464" r="5.464" transform="translate(7523.281 -272.556)" fill="#dbf0ff" opacity="0.75"/>
    <circle id="Elipse_208" data-name="Elipse 208" cx="5.464" cy="5.464" r="5.464" transform="translate(7509.621 -327.195)" fill="#f5fcff" opacity="0.75"/>
    <circle id="Elipse_209" data-name="Elipse 209" cx="10.828" cy="10.828" r="10.828" transform="translate(7435.073 -396) rotate(90)" fill="#d6d5f8" opacity="0.75"/>
    <ellipse id="Elipse_210" data-name="Elipse 210" cx="10.828" cy="11.279" rx="10.828" ry="11.279" transform="translate(7358.373 -292.23) rotate(-90)" fill="#f5fcff" opacity="0.75"/>
    <circle id="Elipse_211" data-name="Elipse 211" cx="10.828" cy="10.828" r="10.828" transform="translate(7407.1 -396) rotate(90)" fill="#fcfaff" opacity="0.75"/>
    <circle id="Elipse_212" data-name="Elipse 212" cx="10.828" cy="10.828" r="10.828" transform="translate(7331.302 -319.3) rotate(-90)" fill="#3524ce" opacity="0.75"/>
    <circle id="Elipse_213" data-name="Elipse 213" cx="10.828" cy="10.828" r="10.828" transform="translate(7462.144 -396) rotate(90)" fill="#f5fcff" opacity="0.75"/>
    <circle id="Elipse_214" data-name="Elipse 214" cx="10.828" cy="10.828" r="10.828" transform="translate(7385.443 -292.23) rotate(-90)" fill="#f5fcff" opacity="0.75"/>
    <circle id="Elipse_215" data-name="Elipse 215" cx="10.828" cy="10.828" r="10.828" transform="translate(7407.1 -340.957) rotate(90)" fill="#fcfaff" opacity="0.75"/>
    <circle id="Elipse_216" data-name="Elipse 216" cx="10.828" cy="10.828" r="10.828" transform="translate(7434.171 -231.772) rotate(90)" fill="#ff4500" opacity="0.75"/>
    <ellipse id="Elipse_217" data-name="Elipse 217" cx="10.828" cy="11.279" rx="10.828" ry="11.279" transform="translate(7358.373 -428.485) rotate(-90)" fill="#f5fcff" opacity="0.75"/>
    <ellipse id="Elipse_218" data-name="Elipse 218" cx="11.279" cy="10.828" rx="11.279" ry="10.828" transform="translate(7407.1 -286.815) rotate(90)" fill="#fcfaff" opacity="0.75"/>
    <ellipse id="Elipse_219" data-name="Elipse 219" cx="10.828" cy="11.279" rx="10.828" ry="11.279" transform="translate(7358.373 -319.3) rotate(-90)" fill="#f5fcff" opacity="0.75"/>
    <circle id="Elipse_220" data-name="Elipse 220" cx="10.828" cy="10.828" r="10.828" transform="translate(7380.029 -258.842) rotate(90)" fill="#fcfaff" opacity="0.75"/>
    <path id="Caminho_23" data-name="Caminho 23" d="M10.828,0A10.828,10.828,0,1,1,0,10.828,10.828,10.828,0,0,1,10.828,0Z" transform="translate(7489.214 -258.842) rotate(90)" fill="#6460f1" opacity="0.75"/>
    <circle id="Elipse_221" data-name="Elipse 221" cx="10.828" cy="10.828" r="10.828" transform="translate(7462.144 -423.071) rotate(90)" fill="#f5fcff" opacity="0.75"/>
    <circle id="Elipse_222" data-name="Elipse 222" cx="10.828" cy="10.828" r="10.828" transform="translate(7299.72 -237.186) rotate(-90)" fill="#e19b81" opacity="0.75"/>
    <ellipse id="Elipse_223" data-name="Elipse 223" cx="11.279" cy="10.828" rx="11.279" ry="10.828" transform="translate(7434.171 -478.114) rotate(90)" fill="#f5fcff" opacity="0.75"/>
    <circle id="Elipse_224" data-name="Elipse 224" cx="5.464" cy="5.464" r="5.464" transform="translate(7454.64 -191.62) rotate(-90)" fill="#f5fcff" opacity="0.75"/>
    <circle id="Elipse_225" data-name="Elipse 225" cx="5.464" cy="5.464" r="5.464" transform="translate(7520.208 -216.208) rotate(90)" fill="#fcfaff" opacity="0.75"/>
    <circle id="Elipse_226" data-name="Elipse 226" cx="5.464" cy="5.464" r="5.464" transform="translate(7481.959 -177.96) rotate(-90)" fill="#f5fcff" opacity="0.75"/>
    <circle id="Elipse_227" data-name="Elipse 227" cx="5.464" cy="5.464" r="5.464" transform="translate(7492.889 -229.868) rotate(90)" fill="#dbf0ff" opacity="0.75"/>
    <circle id="Elipse_228" data-name="Elipse 228" cx="5.464" cy="5.464" r="5.464" transform="translate(7440.979 -177.96) rotate(-90)" fill="#fcfaff" opacity="0.75"/>
    <circle id="Elipse_229" data-name="Elipse 229" cx="5.464" cy="5.464" r="5.464" transform="translate(7481.959 -164.3) rotate(-90)" fill="#fcfaff" opacity="0.75"/>
    <circle id="Elipse_230" data-name="Elipse 230" cx="5.464" cy="5.464" r="5.464" transform="translate(7547.527 -230.21) rotate(90)" fill="#fcfaff" opacity="0.75"/>
    <circle id="Elipse_231" data-name="Elipse 231" cx="5.464" cy="5.464" r="5.464" transform="translate(7468.299 -302.949) rotate(-90)" fill="#f5fcff" opacity="0.75"/>
    <circle id="Elipse_232" data-name="Elipse 232" cx="5.464" cy="5.464" r="5.464" transform="translate(7533.869 -147.908) rotate(90)" fill="#f5fcff" opacity="0.75"/>
    <circle id="Elipse_233" data-name="Elipse 233" cx="5.464" cy="5.464" r="5.464" transform="translate(7550.259 -232.942) rotate(-90)" fill="#f5fcff" opacity="0.75"/>
    <circle id="Elipse_234" data-name="Elipse 234" cx="5.464" cy="5.464" r="5.464" transform="translate(7520.209 -175.228) rotate(90)" fill="#f5fcff" opacity="0.75"/>
    <circle id="Elipse_235" data-name="Elipse 235" cx="5.464" cy="5.464" r="5.464" transform="translate(7481.959 -261.969) rotate(-90)" fill="#fcfaff" opacity="0.75"/>
    <circle id="Elipse_236" data-name="Elipse 236" cx="5.464" cy="5.464" r="5.464" transform="translate(7520.209 -161.568) rotate(90)" fill="#f5fcff" opacity="0.75"/>
    <circle id="Elipse_237" data-name="Elipse 237" cx="5.464" cy="5.464" r="5.464" transform="translate(7468.299 -261.969) rotate(-90)" fill="#fcfaff" opacity="0.75"/>
    <circle id="Elipse_238" data-name="Elipse 238" cx="5.464" cy="5.464" r="5.464" transform="translate(7533.869 -161.568) rotate(90)" fill="#fcfaff" opacity="0.75"/>
    <circle id="Elipse_239" data-name="Elipse 239" cx="5.464" cy="5.464" r="5.464" transform="translate(7440.979 -164.3) rotate(-90)" fill="#f5fcff" opacity="0.75"/>
    <circle id="Elipse_240" data-name="Elipse 240" cx="5.464" cy="5.464" r="5.464" transform="translate(7533.868 -243.528) rotate(90)" fill="#f5fcff" opacity="0.75"/>
    <circle id="Elipse_241" data-name="Elipse 241" cx="5.464" cy="5.464" r="5.464" transform="translate(7452.59 -150.64) rotate(-90)" fill="#f5fcff" opacity="0.75"/>
    <circle id="Elipse_242" data-name="Elipse 242" cx="5.414" cy="5.414" r="5.414" transform="translate(7519.894 -257.038) rotate(90)" fill="#f5fcff" opacity="0.75"/>
    <circle id="Elipse_243" data-name="Elipse 243" cx="5.464" cy="5.464" r="5.464" transform="translate(7452.59 -136.98) rotate(-90)" fill="#fcfaff" opacity="0.75"/>
    <circle id="Elipse_244" data-name="Elipse 244" cx="5.414" cy="5.414" r="5.414" transform="translate(7519.895 -270.573) rotate(90)" fill="#fcfaff" opacity="0.75"/>
    <g id="Grupo_45" data-name="Grupo 45" transform="translate(7440.638 -463.796)" opacity="0.75" clip-path="url(#clip-path)">
      <circle id="Elipse_245" data-name="Elipse 245" cx="5.464" cy="5.464" r="5.464" transform="translate(79.569 68.3) rotate(90)" fill="#fcfaff"/>
      <circle id="Elipse_246" data-name="Elipse 246" cx="5.464" cy="5.464" r="5.464" transform="translate(41.321 106.548) rotate(-90)" fill="#dbf0ff"/>
      <circle id="Elipse_247" data-name="Elipse 247" cx="5.464" cy="5.464" r="5.464" transform="translate(52.251 54.64) rotate(90)" fill="#fcfaff"/>
      <circle id="Elipse_248" data-name="Elipse 248" cx="5.464" cy="5.464" r="5.464" transform="translate(0.341 106.548) rotate(-90)" fill="#fcfaff"/>
      <circle id="Elipse_249" data-name="Elipse 249" cx="5.464" cy="5.464" r="5.464" transform="translate(93.229 54.64) rotate(90)" fill="#fcfaff"/>
      <circle id="Elipse_250" data-name="Elipse 250" cx="5.464" cy="5.464" r="5.464" transform="translate(41.321 120.208) rotate(-90)" fill="#fcfaff"/>
      <circle id="Elipse_251" data-name="Elipse 251" cx="5.464" cy="5.464" r="5.464" transform="translate(38.589 40.98) rotate(90)" fill="#fffafd"/>
      <circle id="Elipse_252" data-name="Elipse 252" cx="5.464" cy="5.464" r="5.464" transform="translate(27.661 10.928) rotate(-90)" fill="#fcfaff"/>
      <circle id="Elipse_253" data-name="Elipse 253" cx="5.464" cy="5.464" r="5.464" transform="translate(93.231 136.6) rotate(90)" fill="#fcfaff"/>
      <circle id="Elipse_254" data-name="Elipse 254" cx="5.464" cy="5.464" r="5.464" transform="translate(41.321 38.248) rotate(-90)" fill="#f67300"/>
      <circle id="Elipse_255" data-name="Elipse 255" cx="5.464" cy="5.464" r="5.464" transform="translate(79.571 109.28) rotate(90)" fill="#fcfaff"/>
      <circle id="Elipse_256" data-name="Elipse 256" cx="5.464" cy="5.464" r="5.464" transform="translate(41.321 24.588) rotate(-90)" fill="#fcfaff"/>
      <circle id="Elipse_257" data-name="Elipse 257" cx="5.464" cy="5.464" r="5.464" transform="translate(79.571 122.94) rotate(90)" fill="#fcfaff"/>
      <circle id="Elipse_258" data-name="Elipse 258" cx="5.464" cy="5.464" r="5.464" transform="translate(27.661 24.588) rotate(-90)" fill="#dbf0ff"/>
      <circle id="Elipse_259" data-name="Elipse 259" cx="5.464" cy="5.464" r="5.464" transform="translate(93.231 122.94) rotate(90)" fill="#fcfaff"/>
      <circle id="Elipse_260" data-name="Elipse 260" cx="5.464" cy="5.464" r="5.464" transform="translate(0.341 120.208) rotate(-90)" fill="#f6edfa"/>
      <g id="Grupo_44" data-name="Grupo 44" transform="translate(11.952 13.66)">
        <circle id="Elipse_261" data-name="Elipse 261" cx="5.464" cy="5.464" r="5.464" transform="translate(81.277 27.32) rotate(90)" fill="#fcfaff"/>
        <circle id="Elipse_262" data-name="Elipse 262" cx="5.464" cy="5.464" r="5.464" transform="translate(0 120.208) rotate(-90)" fill="#fcfaff"/>
        <circle id="Elipse_263" data-name="Elipse 263" cx="5.464" cy="5.464" r="5.464" transform="translate(67.275 13.66) rotate(90)" fill="#fcfaff"/>
        <circle id="Elipse_264" data-name="Elipse 264" cx="5.464" cy="5.464" r="5.464" transform="translate(0 133.868) rotate(-90)" fill="#fcfaff"/>
        <circle id="Elipse_265" data-name="Elipse 265" cx="5.464" cy="5.464" r="5.464" transform="translate(67.277) rotate(90)" fill="#fcfaff"/>
      </g>
      <circle id="Elipse_266" data-name="Elipse 266" cx="5.464" cy="5.464" r="5.464" transform="translate(66.251 65.568) rotate(180)" fill="#f5fcff"/>
      <ellipse id="Elipse_267" data-name="Elipse 267" cx="5.865" cy="5.414" rx="5.865" ry="5.414" transform="translate(66.623 52.455) rotate(180)" fill="#fcfaff"/>
      <circle id="Elipse_268" data-name="Elipse 268" cx="5.414" cy="5.414" r="5.414" transform="translate(69.331 41.627)" fill="#f5fcff"/>
      <circle id="Elipse_269" data-name="Elipse 269" cx="5.414" cy="5.414" r="5.414" transform="translate(82.866 0.119)" fill="#fcfaff"/>
      <circle id="Elipse_270" data-name="Elipse 270" cx="5.464" cy="5.464" r="5.464" transform="translate(93.571 94.937) rotate(180)" fill="#f5fcff"/>
    </g>
    <circle id="Elipse_271" data-name="Elipse 271" cx="5.464" cy="5.464" r="5.464" transform="translate(7563.919 -186.839)" fill="#f5fcff" opacity="0.75"/>
    <circle id="Elipse_272" data-name="Elipse 272" cx="5.464" cy="5.464" r="5.464" transform="translate(7550.259 -159.519)" fill="#f5fcff" opacity="0.75"/>
    <circle id="Elipse_273" data-name="Elipse 273" cx="5.464" cy="5.464" r="5.464" transform="translate(7602.167 -148.59) rotate(180)" fill="#fcfaff" opacity="0.75"/>
    <circle id="Elipse_274" data-name="Elipse 274" cx="5.464" cy="5.464" r="5.464" transform="translate(7550.259 -200.499)" fill="#fcfaff" opacity="0.75"/>
    <circle id="Elipse_275" data-name="Elipse 275" cx="5.464" cy="5.464" r="5.464" transform="translate(7602.167 -107.611) rotate(180)" fill="#f6edfa" opacity="0.75"/>
    <circle id="Elipse_276" data-name="Elipse 276" cx="5.464" cy="5.464" r="5.464" transform="translate(7536.6 -159.519)" fill="#dbf0ff" opacity="0.75"/>
    <circle id="Elipse_277" data-name="Elipse 277" cx="5.464" cy="5.464" r="5.464" transform="translate(7615.828 -162.251) rotate(180)" fill="#fcfaff" opacity="0.75"/>
    <g id="Grupo_46" data-name="Grupo 46" transform="translate(7509.279 -173.179)" opacity="0.75">
      <circle id="Elipse_87" data-name="Elipse 87" cx="5.464" cy="5.464" r="5.464" transform="translate(136.6)" fill="#f5fcff"/>
      <circle id="Elipse_88" data-name="Elipse 88" cx="5.464" cy="5.464" r="5.464" transform="translate(10.928 65.569) rotate(180)" fill="#f5fcff"/>
      <circle id="Elipse_89" data-name="Elipse 89" cx="5.464" cy="5.464" r="5.464" transform="translate(109.28 13.66)" fill="#f5fcff"/>
      <circle id="Elipse_90" data-name="Elipse 90" cx="5.464" cy="5.464" r="5.464" transform="translate(38.248 51.909) rotate(180)" fill="#f5fcff"/>
      <circle id="Elipse_91" data-name="Elipse 91" cx="5.464" cy="5.464" r="5.464" transform="translate(122.94 13.66)" fill="#f5fcff"/>
    </g>
    <circle id="Elipse_278" data-name="Elipse 278" cx="5.464" cy="5.464" r="5.464" transform="translate(7533.868 -121.27) rotate(180)" fill="#fcfaff" opacity="0.75"/>
    <circle id="Elipse_279" data-name="Elipse 279" cx="5.464" cy="5.464" r="5.464" transform="translate(7632.22 -173.179)" fill="#fcfaff" opacity="0.75"/>
    <circle id="Elipse_280" data-name="Elipse 280" cx="5.464" cy="5.464" r="5.464" transform="translate(7536.6 -200.499)" fill="#f5fcff" opacity="0.75"/>
    <circle id="Elipse_281" data-name="Elipse 281" cx="5.464" cy="5.464" r="5.464" transform="translate(7615.828 -107.611) rotate(180)" fill="#fcfaff" opacity="0.75"/>
    <circle id="Elipse_282" data-name="Elipse 282" cx="5.464" cy="5.464" r="5.464" transform="translate(7522.939 -188.888)" fill="#f5fcff" opacity="0.75"/>
    <circle id="Elipse_283" data-name="Elipse 283" cx="5.464" cy="5.464" r="5.464" transform="translate(7509.279 -188.888)" fill="#f5fcff" opacity="0.75"/>
    <circle id="Elipse_284" data-name="Elipse 284" cx="5.464" cy="5.464" r="5.464" transform="translate(7643.147 -121.611) rotate(180)" fill="#fcfaff" opacity="0.75"/>
    <path id="Caminho_25" data-name="Caminho 25" d="M308.16,49.58a3.858,3.858,0,0,0-.5.38A4,4,0,0,1,301,47V32.38a4,4,0,0,1,6.66-3,3.86,3.86,0,0,0,.5.38l9.91,6.66a3.93,3.93,0,0,1,1.77,3.23v.22a3.92,3.92,0,0,1-1.77,3Z" transform="translate(7717.152 -456.397) rotate(150)" fill="#ff4300" opacity="0.75"/>
  </g>
</svg>
